<svg xmlns="http://www.w3.org/2000/svg" viewBox="0 0 100 100" width="100" height="100">
  <!-- Blue arc above head -->
  <path d="M33 30C38 16 44 12 50 12s12 4 17 18" fill="none" stroke="#2D7DC4" stroke-width="7" stroke-linecap="round"/>
  <!-- Head -->
  <circle cx="50" cy="34" r="8" fill="#1a1a1a"/>
  <!-- Left arm -->
  <path d="M42 44C36 38 30 30 26 26c-2-2-3-3-4-3c-3 0-5 2-5 5c0 2 1 3 3 5l0 0" fill="none" stroke="#1a1a1a" stroke-width="8" stroke-linecap="round" stroke-linejoin="round"/>
  <!-- Left fist -->
  <circle cx="20" cy="24" r="6" fill="#1a1a1a"/>
  <!-- Right arm -->
  <path d="M58 44C64 38 70 30 74 26c2-2 3-3 4-3c3 0 5 2 5 5c0 2-1 3-3 5l0 0" fill="none" stroke="#1a1a1a" stroke-width="8" stroke-linecap="round" stroke-linejoin="round"/>
  <!-- Right fist -->
  <circle cx="80" cy="24" r="6" fill="#1a1a1a"/>
  <!-- Body/torso -->
  <path d="M44 44h12v14H44z" fill="#1a1a1a" rx="2"/>
  <!-- Waist -->
  <ellipse cx="50" cy="58" rx="8" ry="4" fill="#1a1a1a"/>
  <!-- Left leg - curved outward -->
  <path d="M44 56C38 64 28 74 18 82" fill="none" stroke="#1a1a1a" stroke-width="9" stroke-linecap="round"/>
  <!-- Right leg - curved outward -->
  <path d="M56 56C62 64 72 74 82 82" fill="none" stroke="#1a1a1a" stroke-width="9" stroke-linecap="round"/>
</svg>