<svg xmlns="http://www.w3.org/2000/svg" viewBox="0 0 56 56" width="56" height="56">
  <circle cx="28" cy="28" r="28" fill="#14a800"/>
  <g fill="white">
    <!-- "u" letter -->
    <path d="M18.5 21.5v8.8c0 2.7 1.4 4.5 3.8 4.5 2.4 0 4.2-1.9 4.8-3.5l0.3-0.7v-9.1h3.8v16.2h-3.8v-2.3c-1.3 1.6-3.2 2.8-5.5 2.8-4.1 0-7.2-3-7.2-7.6v-9.1h3.8z"/>
    <!-- "p" letter -->
    <path d="M34.2 21.5h3.8v2.2c1.2-1.6 3-2.7 5.2-2.7 4.2 0 7.3 3.5 7.3 8.6s-3.1 8.6-7.3 8.6c-2 0-3.8-0.9-5.2-2.5v7.8h-3.8V21.5zm8.1 3.3c-2.6 0-4.5 2.1-4.5 5.1s1.9 5.1 4.5 5.1c2.6 0 4.4-2.1 4.4-5.1s-1.8-5.1-4.4-5.1z"/>
  </g>
</svg>